<svg xmlns="http://www.w3.org/2000/svg" width="1200" height="760" viewBox="0 0 1200 760"><rect width="1200" height="760" fill="#fbf8f4"/><rect x="40" y="40" width="1120" height="680" rx="20" fill="#ffffff" stroke="#e2ddd4"/><text x="72" y="92" font-family="Inter,system-ui,sans-serif" font-size="15" font-weight="400" fill="#8a847c" >⌥ Git</text><text x="132" y="92" font-family="Inter,system-ui,sans-serif" font-size="15" font-weight="400" fill="#8a847c" >/</text><text x="150" y="92" font-family="Inter,system-ui,sans-serif" font-size="15" font-weight="400" fill="#8a847c" >GitHub</text><text x="222" y="92" font-family="Inter,system-ui,sans-serif" font-size="15" font-weight="400" fill="#8a847c" >/</text><text x="240" y="92" font-family="Inter,system-ui,sans-serif" font-size="15" font-weight="600" fill="#1c1b19" >export-ui</text><line x1="72" y1="112" x2="1128" y2="112" stroke="#ece7df"/><rect x="72" y="136" width="1056" height="116" rx="14" fill="#ffffff" stroke="#e2ddd4"/><rect x="96" y="160" width="64" height="64" rx="14" fill="#f4f1ec" stroke="#e2ddd4"/><circle cx="128" cy="192" r="20" fill="#1c1b19"/><circle cx="128" cy="188" r="9" fill="#fff"/><rect x="123" y="196" width="10" height="12" rx="3" fill="#fff"/><text x="180" y="184" font-family="Inter,system-ui,sans-serif" font-size="22" font-weight="700" fill="#1c1b19" >export-ui</text><text x="180" y="212" font-family="Inter,system-ui,sans-serif" font-size="14" font-weight="400" fill="#8a847c" >Created by export@boncuisinebrand.com, last updated just now</text><rect x="788" y="170" width="220" height="44" rx="11" fill="#ffffff" stroke="#e2ddd4"/><text x="898" y="197" font-family="Inter,system-ui,sans-serif" font-size="14" font-weight="600" fill="#1c1b19" text-anchor="middle">Configure on GitHub ↗</text><rect x="1020" y="170" width="108" height="44" rx="11" fill="#ffffff" stroke="#e2ddd4"/><text x="1074" y="197" font-family="Inter,system-ui,sans-serif" font-size="14" font-weight="600" fill="#1c1b19" text-anchor="middle">Open docs ↗</text><text x="72" y="300" font-family="Inter,system-ui,sans-serif" font-size="22" font-weight="700" fill="#1c1b19" >Linked projects</text><rect x="242" y="284" width="120" height="24" rx="12" fill="#e7f6ee"/><text x="302" y="301" font-family="Inter,system-ui,sans-serif" font-size="13" font-weight="600" fill="#1f9d62" text-anchor="middle">✓ 1 linked</text><rect x="72" y="326" width="1056" height="96" rx="14" fill="#ffffff" stroke="#1f9d62" stroke-opacity="0.55"/><rect x="96" y="344" width="60" height="60" rx="12" fill="#0e1530"/><circle cx="126" cy="370" r="15" fill="#2e7bf6" opacity="0.9"/><circle cx="141" cy="362" r="1.5" fill="#8a7bff" opacity="0.85"/><circle cx="122" cy="355" r="1.4" fill="#8a7bff" opacity="0.85"/><circle cx="114" cy="375" r="1.8" fill="#8a7bff" opacity="0.85"/><circle cx="116" cy="379" r="1.2" fill="#8a7bff" opacity="0.85"/><circle cx="140" cy="368" r="0.9" fill="#8a7bff" opacity="0.85"/><circle cx="143" cy="373" r="1.1" fill="#8a7bff" opacity="0.85"/><circle cx="142" cy="366" r="1.2" fill="#8a7bff" opacity="0.85"/><circle cx="120" cy="386" r="1.8" fill="#8a7bff" opacity="0.85"/><circle cx="127" cy="354" r="1.5" fill="#8a7bff" opacity="0.85"/><circle cx="118" cy="378" r="1.6" fill="#8a7bff" opacity="0.85"/><circle cx="112" cy="362" r="1.6" fill="#8a7bff" opacity="0.85"/><circle cx="139" cy="360" r="1.8" fill="#8a7bff" opacity="0.85"/><text x="176" y="366" font-family="Inter,system-ui,sans-serif" font-size="18" font-weight="700" fill="#1c1b19" >Rift Hunter</text><text x="176" y="390" font-family="Inter,system-ui,sans-serif" font-size="14" font-weight="400" fill="#8a847c" >export-ui/rift-hunter</text><rect x="376" y="376" width="86" height="22" rx="11" fill="#f4f1ec"/><text x="419" y="391" font-family="Inter,system-ui,sans-serif" font-size="12" font-weight="600" fill="#1c1b19" text-anchor="middle">⎇ main</text><rect x="868" y="362" width="118" height="26" rx="13" fill="#e7f6ee"/><circle cx="886" cy="375" r="4" fill="#1f9d62"/><text x="938" y="379" font-family="Inter,system-ui,sans-serif" font-size="13" font-weight="600" fill="#1f9d62" text-anchor="middle">Synced</text><rect x="1002" y="360" width="102" height="30" rx="9" fill="#1c1b19"/><text x="1053" y="380" font-family="Inter,system-ui,sans-serif" font-size="13" font-weight="600" fill="#fff" text-anchor="middle">Open ↗</text><rect x="72" y="450" width="1056" height="72" rx="12" fill="#e7f6ee" stroke="#1f9d62" stroke-opacity="0.35"/><text x="96" y="480" font-family="Inter,system-ui,sans-serif" font-size="15" font-weight="700" fill="#1f9d62" >✓  TARGET STATE: your Rift Hunter project appears here, linked to</text><text x="96" y="504" font-family="Inter,system-ui,sans-serif" font-size="14" font-weight="400" fill="#2c7a52" >export-ui/rift-hunter on branch main, status Synced.</text><text x="96" y="504" font-family="Inter,system-ui,sans-serif" font-size="15" font-weight="400" fill="#1c1b19" ></text></svg>